<?xml version="1.0" encoding="UTF-8"?>
<svg version="1.1" xmlns="http://www.w3.org/2000/svg" width="386" height="323">
<path d="M0 0 C12.87 0 25.74 0 39 0 C39.54016383 25.56775467 35.26503483 48.91485861 24 72 C23.69191406 72.63534668 23.38382812 73.27069336 23.06640625 73.92529297 C16.14016336 88.01128798 7.32259248 100.26809332 -3.58789062 111.53222656 C-5.00091877 113.00095498 -6.38366552 114.49425258 -7.765625 115.9921875 C-35.61988541 145.63123731 -75.49173596 158.91508091 -115.21484375 161.18359375 C-158.07005242 162.20538694 -198.02792281 144.99088211 -229 116 C-244.56464776 101.01998495 -262.20831923 78.49662291 -267 57 C-266.58203125 54.74609375 -266.58203125 54.74609375 -266 53 C-265.29037109 54.48886719 -265.29037109 54.48886719 -264.56640625 56.0078125 C-247.57568306 91.13416285 -220.89326152 117.52289242 -184 131 C-180.95832872 132.01697819 -177.89828807 132.9391018 -174.8125 133.8125 C-173.78116943 134.10495605 -173.78116943 134.10495605 -172.72900391 134.40332031 C-138.41078041 143.51947526 -99.68759422 138.23166592 -68.95703125 120.4765625 C-61.91197162 116.17794123 -55.37248968 111.23227595 -49 106 C-48.44973145 105.54898926 -47.89946289 105.09797852 -47.33251953 104.63330078 C-20.16088307 81.96645775 -5.03837647 48.65363588 -1 14 C-0.67 9.38 -0.34 4.76 0 0 Z " fill="#7F7F7F" transform="translate(309,157)"/>
<path d="M0 0 C0.86399414 0.23605957 1.72798828 0.47211914 2.61816406 0.71533203 C28.47043745 8.04565672 50.83553114 21.25905531 70 40 C71.00418285 40.94380061 72.00940873 41.88649258 73.015625 42.828125 C96.39090859 65.02435105 115.72963252 100.61280978 117.09765625 133.3359375 C117.06510417 135.22395833 117.03255208 137.11197917 117 139 C116.67 139 116.34 139 116 139 C115.78085937 137.76507813 115.56171875 136.53015625 115.3359375 135.2578125 C109.80756106 105.21800823 98.07224189 80.36782276 77 58 C76.40058594 57.33613281 75.80117188 56.67226563 75.18359375 55.98828125 C52.63225404 31.97573162 17.21890787 17.92477264 -15.30859375 16.78125 C-41.19515882 16.20298651 -65.29910131 21.38630505 -88 34 C-89.09054688 34.58910156 -90.18109375 35.17820313 -91.3046875 35.78515625 C-98.09907945 39.57998839 -104.10538537 43.92987327 -110 49 C-111.23363281 50.04994141 -111.23363281 50.04994141 -112.4921875 51.12109375 C-141.10628752 76.12500358 -154.50717948 109.14028333 -160 146 C-165.37117146 143.42372854 -170.28921544 140.62835526 -175.1875 137.25 C-182.00463692 132.62220118 -188.94634436 128.25836209 -196 124 C-192.8544233 94.26602239 -176.2186945 66.29617979 -156 45 C-155.53110352 44.49855469 -155.06220703 43.99710938 -154.57910156 43.48046875 C-116.15621878 2.59553717 -54.31104667 -14.95755002 0 0 Z " fill="#7F7F7F" transform="translate(233,4)"/>
<path d="M0 0 C-1.36367372 2.72734744 -2.61448617 2.7574118 -5.46875 3.7421875 C-6.89537964 4.24854736 -6.89537964 4.24854736 -8.35083008 4.76513672 C-9.39005615 5.1313916 -10.42928223 5.49764648 -11.5 5.875 C-44.51443098 17.90776398 -74.91752423 35.65260975 -102 58 C-102.82419434 58.66974854 -102.82419434 58.66974854 -103.66503906 59.35302734 C-112.73094866 66.75746596 -121.08313005 74.87676813 -129.375 83.125 C-129.88528748 83.63002045 -130.39557495 84.13504089 -130.92132568 84.65536499 C-137.74287151 91.4223835 -144.02427199 98.46519107 -150 106 C-151.00035075 107.20868067 -152.00378075 108.41482667 -153.01171875 109.6171875 C-163.45631649 122.25954247 -172.64126004 135.90643284 -180.72509766 150.1706543 C-181.14581543 150.77433838 -181.5665332 151.37802246 -182 152 C-182.66 152 -183.32 152 -184 152 C-185.54560014 149.88480619 -186.96939128 147.76881345 -188.375 145.5625 C-189.28190884 144.17190645 -190.19084138 142.78263107 -191.1015625 141.39453125 C-191.57754883 140.66830566 -192.05353516 139.94208008 -192.54394531 139.19384766 C-200.66359948 126.95990863 -209.48679267 115.19140202 -218.2265625 103.3984375 C-219.96973105 101.04093643 -221.70501298 98.677859 -223.4375 96.3125 C-230.28430767 86.97142854 -237.24234112 77.7255773 -244.28466797 68.53100586 C-249.68270694 61.46379265 -254.90464913 54.28782155 -260 47 C-259.01 46.505 -259.01 46.505 -258 46 C-255.62173153 47.29780185 -253.39191095 48.65075725 -251.125 50.125 C-250.42173584 50.57367432 -249.71847168 51.02234863 -248.99389648 51.48461914 C-246.65640967 52.98035593 -244.3276184 54.48895747 -242 56 C-241.19546387 56.52029785 -240.39092773 57.0405957 -239.56201172 57.57666016 C-235.35582767 60.29742902 -231.15576684 63.02738389 -226.9609375 65.765625 C-223.08372598 68.29626907 -219.19741531 70.81232176 -215.30615234 73.32128906 C-206.81421675 78.79730561 -198.39039175 84.36976624 -190 90 C-186.55220914 88.49993609 -184.17639467 86.49590738 -181.4375 83.9375 C-176.64173681 79.55240448 -171.73225356 75.3745601 -166.65234375 71.32226562 C-165.49488293 70.39602334 -164.34157179 69.46458268 -163.19140625 68.52929688 C-124.90345883 37.44441401 -80.72295356 11.79672406 -32 2 C-30.83726562 1.75507812 -29.67453125 1.51015625 -28.4765625 1.2578125 C-19.04434583 -0.47657495 -9.55056802 -0.18153139 0 0 Z " fill="#F3B11E" transform="translate(273,79)"/>
<path d="M0 0 C1.39198357 0.00848969 1.39198357 0.00848969 2.81208801 0.01715088 C5.77759271 0.03955124 8.74189145 0.08975427 11.70703125 0.140625 C13.71677943 0.16068527 15.72654654 0.17893687 17.73632812 0.1953125 C22.66452754 0.23942804 27.5918249 0.30848076 32.51953125 0.390625 C32.32503891 0.97228928 32.13054657 1.55395355 31.93016052 2.15324402 C22.11760652 31.53795412 15.79909498 59.4117136 14.51953125 90.390625 C-4.74717394 96.81286006 -30.2464215 89.12219083 -48.48046875 82.390625 C-47.1578652 75.3701024 -44.95895355 69.27332503 -42.04296875 62.765625 C-41.60122314 61.76853516 -41.15947754 60.77144531 -40.7043457 59.74414062 C-39.31054982 56.61968422 -37.89928823 53.50379145 -36.48046875 50.390625 C-36.03993164 49.42157227 -35.59939453 48.45251953 -35.14550781 47.45410156 C-28.38879605 32.6998544 -21.01594015 18.20711273 -12.48046875 4.390625 C-12.12428467 3.64353271 -11.76810059 2.89644043 -11.40112305 2.12670898 C-8.13376628 -0.82666257 -4.23235947 -0.09674072 0 0 Z " fill="#F3B11E" transform="translate(170.48046875,196.609375)"/>
<path d="M0 0 C0.66 0.33 1.32 0.66 2 1 C1.79431396 1.51046875 1.58862793 2.0209375 1.37670898 2.546875 C-6.03246895 21.08317156 -11.98162371 39.76397692 -15.8125 59.375 C-16.00739014 60.37104248 -16.20228027 61.36708496 -16.40307617 62.39331055 C-19.11500743 77.10514918 -20.33982724 91.71082858 -20.26074219 106.65942383 C-20.24998649 109.06552202 -20.26074181 111.47087666 -20.2734375 113.87695312 C-20.27997622 122.44474223 -19.87731878 130.81165997 -18.6987915 139.30397034 C-17.12197742 150.74389015 -17.12197742 150.74389015 -19.9140625 154.73828125 C-21.25597656 156.01251953 -21.25597656 156.01251953 -22.625 157.3125 C-23.10702881 157.77180908 -23.58905762 158.23111816 -24.08569336 158.7043457 C-39.52969111 173 -39.52969111 173 -45 173 C-45.98862638 167.20593617 -46.17550551 161.56684244 -46.203125 155.6953125 C-46.21013931 154.70698425 -46.21715363 153.71865601 -46.22438049 152.70037842 C-46.24187666 149.50853931 -46.24823719 146.31688537 -46.25 143.125 C-46.25067474 142.03898499 -46.25134949 140.95296997 -46.25204468 139.83404541 C-46.23639883 124.02997996 -45.95269832 108.57432118 -43 93 C-42.75056641 91.64092529 -42.75056641 91.64092529 -42.49609375 90.25439453 C-36.30088363 57.57466113 -23.95011436 23.95011436 0 0 Z " fill="#F3B11E" transform="translate(283,96)"/>
<path d="M0 0 C1.16257324 0.01047363 2.32514648 0.02094727 3.52294922 0.03173828 C5.40820312 0.04140625 5.40820312 0.04140625 7.33154297 0.05126953 C9.30960938 0.07640625 9.30960938 0.07640625 11.32763672 0.10205078 C12.66747393 0.11208096 14.00731823 0.12120674 15.34716797 0.12939453 C18.63250244 0.15303003 21.91748137 0.18597844 25.20263672 0.22705078 C23.72062924 4.90320873 21.80136829 8.83737408 19.20263672 12.97705078 C13.91722467 21.57531299 9.06920785 30.38497084 4.20263672 39.22705078 C-8.33736328 39.22705078 -20.87736328 39.22705078 -33.79736328 39.22705078 C-30.1914424 33.81816946 -26.69609282 28.59899422 -22.67236328 23.53955078 C-22.21224854 22.9572168 -21.75213379 22.37488281 -21.27807617 21.77490234 C-4.21130657 0.3418149 -4.21130657 0.3418149 0 0 Z " fill="#F3B11E" transform="translate(206.79736328125,139.77294921875)"/>
<path d="M0 0 C-0.78375 1.03125 -1.5675 2.0625 -2.375 3.125 C-5.88899911 7.80190529 -9.27736779 12.56589084 -12.65966797 17.33837891 C-15.89795014 21.89795014 -15.89795014 21.89795014 -17 23 C-18.78071246 23.08726223 -20.5648314 23.10699041 -22.34765625 23.09765625 C-23.42724609 23.09443359 -24.50683594 23.09121094 -25.61914062 23.08789062 C-26.75544922 23.07951172 -27.89175781 23.07113281 -29.0625 23.0625 C-30.20267578 23.05798828 -31.34285156 23.05347656 -32.51757812 23.04882812 C-35.34510351 23.03699747 -38.1725264 23.0205141 -41 23 C-38.20870706 16.85488523 -32.57599559 12.83426678 -27.59521484 8.44482422 C-26.26018246 7.23565347 -24.99013399 5.95525088 -23.73828125 4.66015625 C-16.93025454 -1.8803645 -8.83274671 -0.63887835 0 0 Z " fill="#F3B11E" transform="translate(256,108)"/>
<path d="M0 0 C0.99 0.33 1.98 0.66 3 1 C2.21753906 1.84304687 1.43507813 2.68609375 0.62890625 3.5546875 C-0.39334825 4.66134834 -1.41547716 5.76812521 -2.4375 6.875 C-2.95376953 7.43058594 -3.47003906 7.98617187 -4.00195312 8.55859375 C-6.82104736 11.54749315 -6.82104736 11.54749315 -9 15 C-12.96 15 -16.92 15 -21 15 C-21 14.34 -21 13.68 -21 13 C-19.6105957 11.90258789 -19.6105957 11.90258789 -17.67578125 10.72265625 C-16.97646484 10.29146484 -16.27714844 9.86027344 -15.55664062 9.41601562 C-14.81607422 8.96935547 -14.07550781 8.52269531 -13.3125 8.0625 C-12.2306543 7.39831055 -12.2306543 7.39831055 -11.12695312 6.72070312 C-9.72206607 5.85980887 -8.31346048 5.00494808 -6.90087891 4.15673828 C-5.2997716 3.18241945 -3.72976142 2.1572624 -2.16796875 1.12109375 C-1.45253906 0.75113281 -0.73710937 0.38117188 0 0 Z " fill="#F3B11E" transform="translate(270,88)"/>
</svg>
